<svg xmlns="http://www.w3.org/2000/svg" height="512" preserveAspectRatio="none" style="display: block;" version="1.1" viewBox="332.3681945800781 270.1260986328125 1381.7924499511719 1471.4952392578125" width="512"><path d="M 635.107 967.271 L 635.053 492.967 C 635.043 381.228 649.97 398.833 744.425 378.357 L 943.437 336.212 C 1018.92 319.972 1094.52 302.673 1170.36 288.02 C 1195.87 283.091 1234.91 272.67 1259.69 270.415 C 1321.91 265.246 1316.54 330.649 1316.54 369.726 L 1316.56 782.314 C 1316.3 830.172 1310.27 863.865 1274.9 899.017 C 1217.46 956.094 1122.7 955.208 1066.79 896.393 C 979.472 804.529 1038.9 655.103 1165.15 648.289 C 1178.14 647.587 1192.02 648.538 1205.08 648.968 L 1205.08 397.762 C 1184.78 401.186 1161.86 406.823 1141.46 411.137 L 746.259 497.478 L 746.259 1006.5 L 746.316 1106.69 C 746.312 1155.84 748.618 1186.45 726.959 1232.94 C 678.534 1336.95 552.916 1385.6 448.372 1333.54 C 206.687 1213.19 378.671 840.957 635.107 967.271 z" fill="#1ed760" transform="translate(0,0)"/><path d="M 1382.51 1741.37 C 1192.56 1748.56 1032.64 1600.62 1025.05 1410.69 C 1017.45 1220.76 1165.04 1060.53 1354.96 1052.53 C 1545.44 1044.51 1706.26 1192.64 1713.88 1383.15 C 1721.5 1573.65 1573.02 1734.15 1382.51 1741.37 z M 1356.44 1186.36 C 1286.79 1195 1228.63 1249.03 1230.44 1323.28 C 1231.18 1353.56 1276.83 1362.91 1292.69 1338.15 C 1298.64 1328.66 1298.58 1316.53 1301.66 1306.07 C 1314.91 1261.11 1367.06 1242.72 1407.22 1265.75 C 1474.56 1304.35 1437.66 1406.64 1362.17 1403.8 C 1353.58 1403.42 1347.03 1403.89 1338.88 1403.8 L 1338.88 1527.85 C 1360.03 1524.24 1376.84 1522.98 1398.6 1525.05 C 1398.64 1506.2 1399.27 1484.04 1398.6 1465.46 C 1555.68 1442.25 1545.03 1165.72 1356.44 1186.36 z M 1362.51 1550.61 C 1350.75 1552.99 1341.18 1561.51 1337.45 1572.92 C 1333.72 1584.32 1336.42 1596.85 1344.5 1605.72 C 1352.58 1614.59 1364.81 1618.42 1376.51 1615.76 C 1394.31 1611.72 1405.54 1594.11 1401.71 1576.27 C 1397.87 1558.42 1380.4 1546.98 1362.51 1550.61 z" fill="#1ed760" transform="translate(0,0)"/><metadata><recraft-signature>{"signed_by": "recraft", "signature_b64": "UlKr1Pn6iCbGAyH7A6AdEV/4GBKH458Obk+gz+/HdGyg1x0UhdkCBG/SDPNEi74N8gT4uviVJ+vjZUvn+ze1AQ==", "signing_algo": "Ed25519"}</recraft-signature></metadata></svg>